<svg xmlns="http://www.w3.org/2000/svg" width="32" height="32"><title/><g><title>background</title><rect id="canvas_background" width="582" height="402" x="-1" y="-1" fill="none"/></g><g><title>Layer 1</title><path id="svg_1" fill="#fff" d="m16,31a15,15 0 1 1 15,-15a15,15 0 0 1 -15,15zm0,-28a13,13 0 1 0 13,13a13,13 0 0 0 -13,-13z" class="cls-1"/><rect id="svg_2" width="2" height="9" x="15" y="14" fill="#fff" class="cls-1"/><path id="svg_3" fill="#fff" d="m16,12a2,2 0 1 1 2,-2a2,2 0 0 1 -2,2zm0,-2z" class="cls-1"/></g></svg>