<svg xmlns="http://www.w3.org/2000/svg" width="32" height="32"><title/><g><title>background</title><rect id="canvas_background" width="582" height="402" x="-1" y="-1" fill="none"/></g><g><title>Layer 1</title><path id="svg_1" fill="#fff" d="m16,31a15,15 0 1 1 15,-15a15,15 0 0 1 -15,15zm0,-28a13,13 0 1 0 13,13a13,13 0 0 0 -13,-13z" class="cls-1"/><path id="svg_2" fill="#fff" d="m13.67,22a1,1 0 0 1 -0.73,-0.32l-4.67,-5a1,1 0 0 1 1.46,-1.36l3.94,4.21l8.6,-9.21a1,1 0 1 1 1.46,1.36l-9.33,10a1,1 0 0 1 -0.73,0.32z" class="cls-1"/></g></svg>